<svg xmlns="http://www.w3.org/2000/svg" viewBox="0 0 430 240">
  
<g transform="translate(0,204) scale(1.0)">
<rect x="0" y="-70" width="34" height="70" fill="#C5D8B8"/>
<rect x="38" y="-100" width="30" height="100" fill="#C5D8B8"/>
<rect x="72" y="-60" width="36" height="60" fill="#C5D8B8"/>
<rect x="112" y="-130" width="28" height="130" fill="#C5D8B8"/>
<rect x="144" y="-170" width="42" height="170" fill="#C5D8B8"/>
<rect x="163.0" y="-202" width="4" height="32" fill="#C5D8B8"/>
<circle cx="165.0" cy="-202" r="5" fill="#C5D8B8"/>
<rect x="190" y="-110" width="30" height="110" fill="#C5D8B8"/>
<polygon points="224,-150 242.0,-176 260,-150" fill="#C5D8B8"/>
<rect x="224" y="-150" width="36" height="150" fill="#C5D8B8"/>
<rect x="264" y="-90" width="28" height="90" fill="#C5D8B8"/>
<rect x="296" y="-120" width="34" height="120" fill="#C5D8B8"/>
<rect x="334" y="-70" width="30" height="70" fill="#C5D8B8"/>
<rect x="368" y="-100" width="26" height="100" fill="#C5D8B8"/>
<rect x="398" y="-60" width="32" height="60" fill="#C5D8B8"/>
</g>
</svg>