<svg xmlns="http://www.w3.org/2000/svg" viewBox="68 62 464 431">
<g transform="translate(85,281) scale(1.0)">
<rect x="0" y="-70" width="34" height="70" fill="#C5D8B8"/>
<rect x="38" y="-100" width="30" height="100" fill="#C5D8B8"/>
<rect x="72" y="-60" width="36" height="60" fill="#C5D8B8"/>
<rect x="112" y="-130" width="28" height="130" fill="#C5D8B8"/>
<rect x="144" y="-170" width="42" height="170" fill="#C5D8B8"/>
<rect x="163.0" y="-202" width="4" height="32" fill="#C5D8B8"/>
<circle cx="165.0" cy="-202" r="5" fill="#C5D8B8"/>
<rect x="190" y="-110" width="30" height="110" fill="#C5D8B8"/>
<polygon points="224,-150 242.0,-176 260,-150" fill="#C5D8B8"/>
<rect x="224" y="-150" width="36" height="150" fill="#C5D8B8"/>
<rect x="264" y="-90" width="28" height="90" fill="#C5D8B8"/>
<rect x="296" y="-120" width="34" height="120" fill="#C5D8B8"/>
<rect x="334" y="-70" width="30" height="70" fill="#C5D8B8"/>
<rect x="368" y="-100" width="26" height="100" fill="#C5D8B8"/>
<rect x="398" y="-60" width="32" height="60" fill="#C5D8B8"/>
</g>
  <path d="M36.080 0L2.200 0L26.620-176L78.540-176L102.960 0L69.080 0L65.340-36.740L39.820-36.740L36.080 0M46.860-104.720L42.900-65.780L62.260-65.780L58.300-104.720L55.660-146.960L49.500-146.960 M158.620 0L113.960 0L113.960-176L158.620-176Q183.370-176 194.425-165.495Q205.480-154.990 205.920-130.900Q206.250-115.610 206.360-101.860Q206.470-88.110 206.360-74.360Q206.250-60.610 205.920-45.320Q205.480-21.120 194.425-10.560Q183.370 0 158.620 0M146.960-146.960L146.960-29.040L158.620-29.040Q165.550-29.040 169.180-32.230Q172.810-35.420 172.920-41.360Q173.250-53.130 173.415-64.790Q173.580-76.450 173.580-88.110Q173.580-99.770 173.415-111.485Q173.250-123.200 172.920-134.860Q172.810-140.690 169.180-143.825Q165.550-146.960 158.620-146.960 M295.020 0L241.780 0L216.260-176L250.360-176L263.340-87.780L265.320-29.040L271.480-29.040L273.460-87.780L286.440-176L320.540-176" fill="#284A1F" transform="translate(80,478) scale(1.3636)"/>
</svg>