<svg xmlns="http://www.w3.org/2000/svg" viewBox="0 0 600 600">
  
<g transform="translate(85,281) scale(1.0)">
<rect x="0" y="-70" width="34" height="70" fill="#C5D8B8"/>
<rect x="38" y="-100" width="30" height="100" fill="#C5D8B8"/>
<rect x="72" y="-60" width="36" height="60" fill="#C5D8B8"/>
<rect x="112" y="-130" width="28" height="130" fill="#C5D8B8"/>
<rect x="144" y="-170" width="42" height="170" fill="#C5D8B8"/>
<rect x="163.0" y="-202" width="4" height="32" fill="#C5D8B8"/>
<circle cx="165.0" cy="-202" r="5" fill="#C5D8B8"/>
<rect x="190" y="-110" width="30" height="110" fill="#C5D8B8"/>
<polygon points="224,-150 242.0,-176 260,-150" fill="#C5D8B8"/>
<rect x="224" y="-150" width="36" height="150" fill="#C5D8B8"/>
<rect x="264" y="-90" width="28" height="90" fill="#C5D8B8"/>
<rect x="296" y="-120" width="34" height="120" fill="#C5D8B8"/>
<rect x="334" y="-70" width="30" height="70" fill="#C5D8B8"/>
<rect x="368" y="-100" width="26" height="100" fill="#C5D8B8"/>
<rect x="398" y="-60" width="32" height="60" fill="#C5D8B8"/>
</g>
  <path d="M36.080 0L2.200 0L26.620-176L78.540-176L102.960 0L69.080 0L65.340-36.740L39.820-36.740L36.080 0M46.860-104.720L42.900-65.780L62.260-65.780L58.300-104.720L55.660-146.960L49.500-146.960 M158.620 0L113.960 0L113.960-176L158.620-176Q183.370-176 194.425-165.495Q205.480-154.990 205.920-130.900Q206.250-115.610 206.360-101.860Q206.470-88.110 206.360-74.360Q206.250-60.610 205.920-45.320Q205.480-21.120 194.425-10.560Q183.370 0 158.620 0M146.960-146.960L146.960-29.040L158.620-29.040Q165.550-29.040 169.180-32.230Q172.810-35.420 172.920-41.360Q173.250-53.130 173.415-64.790Q173.580-76.450 173.580-88.110Q173.580-99.770 173.415-111.485Q173.250-123.200 172.920-134.860Q172.810-140.690 169.180-143.825Q165.550-146.960 158.620-146.960 M295.020 0L241.780 0L216.260-176L250.360-176L263.340-87.780L265.320-29.040L271.480-29.040L273.460-87.780L286.440-176L320.540-176" fill="#FFFFFF" transform="translate(80,478) scale(1.3636)"/>
  <path d="M18.816 0L14.368 0L12.800-5.664L6.176-5.664L4.640 0L0.416 0L6.688-22.336L12.512-22.336L18.816 0M12.096-9.088L9.632-18.208L9.376-18.208L6.912-9.088 M27.536 0L27.536-22.336L34.480-22.336Q38.832-22.336 40.960-19.456Q43.088-16.576 43.088-11.168Q43.088-5.728 40.960-2.864Q38.832 0 34.480 0L27.536 0M31.664-3.360L34.192-3.360Q36.496-3.360 37.600-4.864Q38.704-6.368 38.704-9.248L38.704-13.120Q38.704-15.968 37.600-17.472Q36.496-18.976 34.192-18.976L31.664-18.976 M64.416 0L64.416-10.336L64.608-16.800L64.320-16.800L60-5.312L55.680-16.800L55.392-16.800L55.584-10.336L55.584 0L51.936 0L51.936-22.336L56.928-22.336L60.032-14.112L60.256-14.112L63.392-22.336L68.064-22.336L68.064 0 M92.304 0L78.096 0L78.096-3.136L83.120-3.136L83.120-19.200L78.096-19.200L78.096-22.336L92.304-22.336L92.304-19.200L87.280-19.200L87.280-3.136L92.304-3.136 M112.704 0L106.848-16.032L106.528-16.032L106.528 0L102.944 0L102.944-22.336L108.096-22.336L113.952-6.304L114.272-6.304L114.272-22.336L117.856-22.336L117.856 0 M142.704 0L128.496 0L128.496-3.136L133.520-3.136L133.520-19.200L128.496-19.200L128.496-22.336L142.704-22.336L142.704-19.200L137.680-19.200L137.680-3.136L142.704-3.136 M160.544 0.384Q157.664 0.384 155.632-0.608Q153.600-1.600 152.320-3.232L154.848-5.856Q156.096-4.416 157.552-3.728Q159.008-3.040 160.672-3.040Q162.592-3.040 163.616-3.904Q164.640-4.768 164.640-6.400Q164.640-7.744 163.872-8.432Q163.104-9.120 161.280-9.408L158.912-9.792Q155.808-10.336 154.496-12.048Q153.184-13.760 153.184-16.096Q153.184-19.296 155.264-21.008Q157.344-22.720 161.024-22.720Q163.648-22.720 165.552-21.888Q167.456-21.056 168.608-19.616L166.144-16.992Q165.248-18.048 164-18.672Q162.752-19.296 161.056-19.296Q157.408-19.296 157.408-16.288Q157.408-15.008 158.176-14.336Q158.944-13.664 160.800-13.344L163.136-12.928Q166.048-12.384 167.456-10.784Q168.864-9.184 168.864-6.688Q168.864-5.120 168.320-3.824Q167.776-2.528 166.720-1.584Q165.664-0.640 164.112-0.128Q162.560 0.384 160.544 0.384 M194.800-18.880L188.080-18.880L188.080 0L183.920 0L183.920-18.880L177.200-18.880L177.200-22.336L194.800-22.336 M208.352-8.672L208.352 0L204.160 0L204.160-22.336L212.640-22.336Q215.904-22.336 217.632-20.480Q219.360-18.624 219.360-15.424Q219.360-12.960 218.224-11.280Q217.088-9.600 214.976-9.152L219.744 0L215.136 0L210.880-8.672L208.352-8.672M208.352-11.936L211.776-11.936Q213.472-11.936 214.208-12.624Q214.944-13.312 214.944-14.816L214.944-16.032Q214.944-17.536 214.208-18.224Q213.472-18.912 211.776-18.912L208.352-18.912 M245.616 0L241.168 0L239.600-5.664L232.976-5.664L231.440 0L227.216 0L233.488-22.336L239.312-22.336L245.616 0M238.896-9.088L236.432-18.208L236.176-18.208L233.712-9.088 M262.176 0.384Q257.792 0.384 255.696-2.624Q253.600-5.632 253.600-11.168Q253.600-16.672 255.696-19.696Q257.792-22.720 262.176-22.720Q263.840-22.720 265.104-22.272Q266.368-21.824 267.296-21.040Q268.224-20.256 268.832-19.152Q269.440-18.048 269.792-16.736L265.952-15.648Q265.728-16.416 265.440-17.088Q265.152-17.760 264.720-18.256Q264.288-18.752 263.648-19.024Q263.008-19.296 262.112-19.296Q259.936-19.296 258.992-17.632Q258.048-15.968 258.048-13.088L258.048-9.248Q258.048-6.368 258.992-4.704Q259.936-3.040 262.112-3.040Q263.008-3.040 263.648-3.312Q264.288-3.584 264.720-4.080Q265.152-4.576 265.440-5.248Q265.728-5.920 265.952-6.688L269.792-5.600Q269.440-4.288 268.832-3.184Q268.224-2.080 267.296-1.296Q266.368-0.512 265.104-0.064Q263.840 0.384 262.176 0.384 M293.904 0L279.696 0L279.696-3.136L284.720-3.136L284.720-19.200L279.696-19.200L279.696-22.336L293.904-22.336L293.904-19.200L288.880-19.200L288.880-3.136L293.904-3.136 M316.448-29.280L312.416-23.840L309.952-25.024L312.992-31.008L316.448-29.280M312 0.384Q309.824 0.384 308.224-0.400Q306.624-1.184 305.584-2.656Q304.544-4.128 304.048-6.272Q303.552-8.416 303.552-11.168Q303.552-13.888 304.048-16.048Q304.544-18.208 305.584-19.680Q306.624-21.152 308.224-21.936Q309.824-22.720 312-22.720Q316.352-22.720 318.400-19.680Q320.448-16.640 320.448-11.168Q320.448-5.696 318.400-2.656Q316.352 0.384 312 0.384M312-3.040Q313.120-3.040 313.888-3.472Q314.656-3.904 315.120-4.704Q315.584-5.504 315.792-6.672Q316-7.840 316-9.280L316-13.088Q316-15.968 315.120-17.632Q314.240-19.296 312-19.296Q309.760-19.296 308.880-17.632Q308-15.968 308-13.088L308-9.248Q308-6.368 308.880-4.704Q309.760-3.040 312-3.040 M339.504 0L333.648-16.032L333.328-16.032L333.328 0L329.744 0L329.744-22.336L334.896-22.336L340.752-6.304L341.072-6.304L341.072-22.336L344.656-22.336L344.656 0  M380.336 0L380.336-22.336L387.280-22.336Q391.632-22.336 393.760-19.456Q395.888-16.576 395.888-11.168Q395.888-5.728 393.760-2.864Q391.632 0 387.280 0L380.336 0M384.464-3.360L386.992-3.360Q389.296-3.360 390.400-4.864Q391.504-6.368 391.504-9.248L391.504-13.120Q391.504-15.968 390.400-17.472Q389.296-18.976 386.992-18.976L384.464-18.976 M419.968 0L405.856 0L405.856-22.336L419.968-22.336L419.968-18.880L410.048-18.880L410.048-13.056L419.616-13.056L419.616-9.600L410.048-9.600L410.048-3.456L419.968-3.456 M445.680 0L431.600 0L431.600-22.336L435.792-22.336L435.792-3.456L445.680-3.456  M491.344 0L485.456 0L479.344-22.336L483.952-22.336L486.736-11.040L488.368-4L488.592-4L490.256-11.040L493.072-22.336L497.456-22.336 M522.816 0L518.368 0L516.800-5.664L510.176-5.664L508.640 0L504.416 0L510.688-22.336L516.512-22.336L522.816 0M516.096-9.088L513.632-18.208L513.376-18.208L510.912-9.088 M546.480 0L532.400 0L532.400-22.336L536.592-22.336L536.592-3.456L546.480-3.456 M571.680 0L557.600 0L557.600-22.336L561.792-22.336L561.792-3.456L571.680-3.456 M596.368 0L582.256 0L582.256-22.336L596.368-22.336L596.368-18.880L586.448-18.880L586.448-13.056L596.016-13.056L596.016-9.600L586.448-9.600L586.448-3.456L596.368-3.456" fill="#C5D8B8" transform="translate(128.95,520) scale(0.5734)"/>
</svg>